ffmpeg started on 2025-05-06 at 10:05:44
Report written to "D:\Convert\FFMetrics\reports\ssim_report-6.txt"
Log level: 32
Command line:
ffmpeg -hide_banner -nostdin -i "G:\\\xc0\xed\xe8\xec\xe5\\\xce\xed\xe3\xee\xe8\xed\xe3\xe8\\!_35_\xcb\xe5\xf2\xee_2024\\JamClub\\\xc1\xe0\xf1\xed\xff\\[JAM_CLUB]_The_Fable_20_[1080p][RUS][DUB]_HEVC.mkv" -i "G:\\\xc0\xed\xe8\xec\xe5\\\xce\xed\xe3\xee\xe8\xed\xe3\xe8\\!_35_\xcb\xe5\xf2\xee_2024\\JamClub\\\xc1\xe0\xf1\xed\xff\\[JAM_CLUB]_The_Fable_20_[1080p][RUS][DUB].mp4" -lavfi "[0:v]settb=AVTB,setpts=PTS-STARTPTS,format=pix_fmts=yuv420p10,fps=24000/1001,scale=1920:1080:flags=bicubic[main];[1:v]settb=AVTB,setpts=PTS-STARTPTS,format=pix_fmts=yuv420p,fps=24000/1001,scale=1920:1080:flags=bicubic[ref];[main][ref]ssim=eof_action=endall:stats_file='D\\:/Convert/FFMetrics/logs/ssim_logfile-6.txt'" -f null -
Input #0, matroska,webm, from 'G:\Аниме\Онгоинги\!_35_Лето_2024\JamClub\Басня\[JAM_CLUB]_The_Fable_20_[1080p][RUS][DUB]_HEVC.mkv':
  Metadata:
    COMPATIBLE_BRANDS: isomiso2avc1mp41
    MAJOR_BRAND     : isom
    MINOR_VERSION   : 512
    ENCODER         : Lavf61.7.100
  Duration: 00:23:14.37, start: -0.001000, bitrate: 965 kb/s
  Stream #0:0: Video: hevc (Main 10), yuv420p10le(tv, bt709, progressive), 1920x1080 [SAR 1:1 DAR 16:9], 23.98 fps, 23.98 tbr, 1k tbn (default)
      Metadata:
        HANDLER_NAME    : VideoHandler
        VENDOR_ID       : [0][0][0][0]
        ENCODER         : Lavc61.19.100 libx265
        BPS             : 765663
        DURATION        : 00:23:14.225708333
        NUMBER_OF_FRAMES: 33428
        NUMBER_OF_BYTES : 133438461
        _STATISTICS_WRITING_APP: mkvpropedit v66.0.0 ('Josie') 64-bit
        _STATISTICS_WRITING_DATE_UTC: 2025-05-05 15:36:27
        _STATISTICS_TAGS: BPS DURATION NUMBER_OF_FRAMES NUMBER_OF_BYTES
  Stream #0:1(eng): Audio: aac (LC), 48000 Hz, stereo, fltp (default)
      Metadata:
        HANDLER_NAME    : SoundHandler
        VENDOR_ID       : [0][0][0][0]
        ENCODER         : Lavc61.19.100 aac
        BPS             : 196220
        DURATION        : 00:23:14.328000000
        NUMBER_OF_FRAMES: 65360
        NUMBER_OF_BYTES : 34199467
        _STATISTICS_WRITING_APP: mkvpropedit v66.0.0 ('Josie') 64-bit
        _STATISTICS_WRITING_DATE_UTC: 2025-05-05 15:36:27
        _STATISTICS_TAGS: BPS DURATION NUMBER_OF_FRAMES NUMBER_OF_BYTES
Input #1, mov,mp4,m4a,3gp,3g2,mj2, from 'G:\Аниме\Онгоинги\!_35_Лето_2024\JamClub\Басня\[JAM_CLUB]_The_Fable_20_[1080p][RUS][DUB].mp4':
  Metadata:
    major_brand     : isom
    minor_version   : 512
    compatible_brands: isomiso2avc1mp41
    encoder         : Lavf60.16.100
  Duration: 00:23:14.35, start: 0.000000, bitrate: 3365 kb/s
  Stream #1:0[0x1](und): Video: h264 (High) (avc1 / 0x31637661), yuv420p(progressive), 1920x1080, 3167 kb/s, 23.98 fps, 23.98 tbr, 90k tbn (default)
      Metadata:
        handler_name    : VideoHandler
        vendor_id       : [0][0][0][0]
  Stream #1:1[0x2](eng): Audio: aac (LC) (mp4a / 0x6134706D), 48000 Hz, stereo, fltp, 191 kb/s (default)
      Metadata:
        handler_name    : SoundHandler
        vendor_id       : [0][0][0][0]
Stream mapping:
  Stream #0:0 (hevc) -> settb:default
  Stream #1:0 (h264) -> settb:default
  ssim:default -> Stream #0:0 (wrapped_avframe)
  Stream #0:1 -> #0:1 (aac (native) -> pcm_s16le (native))
Output #0, null, to 'pipe:':
  Metadata:
    COMPATIBLE_BRANDS: isomiso2avc1mp41
    MAJOR_BRAND     : isom
    MINOR_VERSION   : 512
    encoder         : Lavf61.7.100
  Stream #0:0: Video: wrapped_avframe, yuv420p10le(tv, bt709, progressive), 1920x1080 [SAR 1:1 DAR 16:9], q=2-31, 200 kb/s, 23.98 fps, 23.98 tbn
      Metadata:
        encoder         : Lavc61.19.100 wrapped_avframe
  Stream #0:1(eng): Audio: pcm_s16le, 48000 Hz, stereo, s16, 1536 kb/s (default)
      Metadata:
        HANDLER_NAME    : SoundHandler
        VENDOR_ID       : [0][0][0][0]
        _STATISTICS_TAGS: BPS DURATION NUMBER_OF_FRAMES NUMBER_OF_BYTES
        BPS             : 196220
        DURATION        : 00:23:14.328000000
        NUMBER_OF_FRAMES: 65360
        NUMBER_OF_BYTES : 34199467
        _STATISTICS_WRITING_APP: mkvpropedit v66.0.0 ('Josie') 64-bit
        _STATISTICS_WRITING_DATE_UTC: 2025-05-05 15:36:27
        encoder         : Lavc61.19.100 pcm_s16le
frame=  119 fps=0.0 q=-0.0 size=N/A time=00:00:04.96 bitrate=N/A speed=9.67x    frame=  282 fps=276 q=-0.0 size=N/A time=00:00:11.76 bitrate=N/A speed=11.5x    frame=  477 fps=309 q=-0.0 size=N/A time=00:00:19.89 bitrate=N/A speed=12.9x    frame=  650 fps=315 q=-0.0 size=N/A time=00:00:27.11 bitrate=N/A speed=13.1x    frame=  786 fps=306 q=-0.0 size=N/A time=00:00:32.78 bitrate=N/A speed=12.8x    frame=  936 fps=303 q=-0.0 size=N/A time=00:00:39.03 bitrate=N/A speed=12.7x    frame= 1102 fps=306 q=-0.0 size=N/A time=00:00:46.00 bitrate=N/A speed=12.8x    frame= 1253 fps=304 q=-0.0 size=N/A time=00:00:52.26 bitrate=N/A speed=12.7x    frame= 1395 fps=301 q=-0.0 size=N/A time=00:00:58.18 bitrate=N/A speed=12.5x    frame= 1542 fps=299 q=-0.0 size=N/A time=00:01:04.31 bitrate=N/A speed=12.5x    frame= 1706 fps=301 q=-0.0 size=N/A time=00:01:11.15 bitrate=N/A speed=12.5x    frame= 1823 fps=295 q=-0.0 size=N/A time=00:01:16.03 bitrate=N/A speed=12.3x    frame= 1981 fps=296 q=-0.0 size=N/A time=00:01:22.62 bitrate=N/A speed=12.3x    frame= 2127 fps=295 q=-0.0 size=N/A time=00:01:28.71 bitrate=N/A speed=12.3x    frame= 2307 fps=299 q=-0.0 size=N/A time=00:01:36.22 bitrate=N/A speed=12.5x    frame= 2520 fps=305 q=-0.0 size=N/A time=00:01:45.10 bitrate=N/A speed=12.7x    frame= 2779 fps=317 q=-0.0 size=N/A time=00:01:55.90 bitrate=N/A speed=13.2x    frame= 3040 fps=327 q=-0.0 size=N/A time=00:02:06.79 bitrate=N/A speed=13.7x    frame= 3292 fps=336 q=-0.0 size=N/A time=00:02:17.30 bitrate=N/A speed=  14x    frame= 3561 fps=345 q=-0.0 size=N/A time=00:02:28.52 bitrate=N/A speed=14.4x    frame= 3833 fps=354 q=-0.0 size=N/A time=00:02:39.86 bitrate=N/A speed=14.8x    frame= 4094 fps=361 q=-0.0 size=N/A time=00:02:50.75 bitrate=N/A speed=15.1x    frame= 4361 fps=368 q=-0.0 size=N/A time=00:03:01.89 bitrate=N/A speed=15.3x    frame= 4618 fps=373 q=-0.0 size=N/A time=00:03:12.60 bitrate=N/A speed=15.6x    frame= 4877 fps=378 q=-0.0 size=N/A time=00:03:23.41 bitrate=N/A speed=15.8x    frame= 5127 fps=383 q=-0.0 size=N/A time=00:03:33.83 bitrate=N/A speed=  16x    frame= 5391 fps=387 q=-0.0 size=N/A time=00:03:44.84 bitrate=N/A speed=16.2x    frame= 5656 fps=392 q=-0.0 size=N/A time=00:03:55.90 bitrate=N/A speed=16.3x    frame= 5916 fps=396 q=-0.0 size=N/A time=00:04:06.74 bitrate=N/A speed=16.5x    frame= 6168 fps=399 q=-0.0 size=N/A time=00:04:17.25 bitrate=N/A speed=16.6x    frame= 6429 fps=402 q=-0.0 size=N/A time=00:04:28.14 bitrate=N/A speed=16.8x    frame= 6686 fps=405 q=-0.0 size=N/A time=00:04:38.86 bitrate=N/A speed=16.9x    frame= 6945 fps=408 q=-0.0 size=N/A time=00:04:49.66 bitrate=N/A speed=  17x    frame= 7205 fps=411 q=-0.0 size=N/A time=00:05:00.50 bitrate=N/A speed=17.2x    frame= 7469 fps=414 q=-0.0 size=N/A time=00:05:11.51 bitrate=N/A speed=17.3x    frame= 7739 fps=417 q=-0.0 size=N/A time=00:05:22.78 bitrate=N/A speed=17.4x    frame= 8012 fps=420 q=-0.0 size=N/A time=00:05:34.16 bitrate=N/A speed=17.5x    frame= 8263 fps=422 q=-0.0 size=N/A time=00:05:44.63 bitrate=N/A speed=17.6x    frame= 8529 fps=424 q=-0.0 size=N/A time=00:05:55.73 bitrate=N/A speed=17.7x    frame= 8789 fps=426 q=-0.0 size=N/A time=00:06:06.57 bitrate=N/A speed=17.8x    frame= 9075 fps=429 q=-0.0 size=N/A time=00:06:18.50 bitrate=N/A speed=17.9x    frame= 9320 fps=430 q=-0.0 size=N/A time=00:06:28.72 bitrate=N/A speed=  18x    frame= 9592 fps=433 q=-0.0 size=N/A time=00:06:40.06 bitrate=N/A speed=  18x    frame= 9857 fps=435 q=-0.0 size=N/A time=00:06:51.11 bitrate=N/A speed=18.1x    frame=10099 fps=435 q=-0.0 size=N/A time=00:07:01.21 bitrate=N/A speed=18.2x    frame=10331 fps=436 q=-0.0 size=N/A time=00:07:10.88 bitrate=N/A speed=18.2x    frame=10612 fps=438 q=-0.0 size=N/A time=00:07:22.60 bitrate=N/A speed=18.3x    frame=10858 fps=439 q=-0.0 size=N/A time=00:07:32.86 bitrate=N/A speed=18.3x    frame=11127 fps=440 q=-0.0 size=N/A time=00:07:44.08 bitrate=N/A speed=18.4x    frame=11394 fps=442 q=-0.0 size=N/A time=00:07:55.22 bitrate=N/A speed=18.4x    frame=11669 fps=444 q=-0.0 size=N/A time=00:08:06.69 bitrate=N/A speed=18.5x    frame=11932 fps=445 q=-0.0 size=N/A time=00:08:17.66 bitrate=N/A speed=18.6x    frame=12183 fps=446 q=-0.0 size=N/A time=00:08:28.13 bitrate=N/A speed=18.6x    frame=12452 fps=447 q=-0.0 size=N/A time=00:08:39.35 bitrate=N/A speed=18.7x    frame=12699 fps=448 q=-0.0 size=N/A time=00:08:49.65 bitrate=N/A speed=18.7x    frame=12966 fps=449 q=-0.0 size=N/A time=00:09:00.79 bitrate=N/A speed=18.7x    frame=13221 fps=450 q=-0.0 size=N/A time=00:09:11.42 bitrate=N/A speed=18.8x    frame=13459 fps=450 q=-0.0 size=N/A time=00:09:21.35 bitrate=N/A speed=18.8x    frame=13684 fps=450 q=-0.0 size=N/A time=00:09:30.73 bitrate=N/A speed=18.8x    frame=13942 fps=451 q=-0.0 size=N/A time=00:09:41.49 bitrate=N/A speed=18.8x    frame=14151 fps=450 q=-0.0 size=N/A time=00:09:50.21 bitrate=N/A speed=18.8x    frame=14410 fps=451 q=-0.0 size=N/A time=00:10:01.01 bitrate=N/A speed=18.8x    frame=14672 fps=452 q=-0.0 size=N/A time=00:10:11.94 bitrate=N/A speed=18.8x    frame=14930 fps=453 q=-0.0 size=N/A time=00:10:22.70 bitrate=N/A speed=18.9x    frame=15199 fps=453 q=-0.0 size=N/A time=00:10:33.92 bitrate=N/A speed=18.9x    frame=15458 fps=454 q=-0.0 size=N/A time=00:10:44.72 bitrate=N/A speed=18.9x    frame=15710 fps=455 q=-0.0 size=N/A time=00:10:55.23 bitrate=N/A speed=  19x    frame=15946 fps=455 q=-0.0 size=N/A time=00:11:05.08 bitrate=N/A speed=  19x    frame=16204 fps=456 q=-0.0 size=N/A time=00:11:15.84 bitrate=N/A speed=  19x    frame=16435 fps=455 q=-0.0 size=N/A time=00:11:25.47 bitrate=N/A speed=  19x    frame=16697 fps=456 q=-0.0 size=N/A time=00:11:36.40 bitrate=N/A speed=  19x    frame=16949 fps=457 q=-0.0 size=N/A time=00:11:46.91 bitrate=N/A speed=  19x    frame=17205 fps=457 q=-0.0 size=N/A time=00:11:57.59 bitrate=N/A speed=19.1x    frame=17465 fps=458 q=-0.0 size=N/A time=00:12:08.43 bitrate=N/A speed=19.1x    frame=17739 fps=459 q=-0.0 size=N/A time=00:12:19.86 bitrate=N/A speed=19.1x    frame=18002 fps=459 q=-0.0 size=N/A time=00:12:30.83 bitrate=N/A speed=19.2x    frame=18250 fps=460 q=-0.0 size=N/A time=00:12:41.17 bitrate=N/A speed=19.2x    frame=18515 fps=460 q=-0.0 size=N/A time=00:12:52.22 bitrate=N/A speed=19.2x    frame=18758 fps=461 q=-0.0 size=N/A time=00:13:02.36 bitrate=N/A speed=19.2x    frame=19038 fps=462 q=-0.0 size=N/A time=00:13:14.04 bitrate=N/A speed=19.3x    frame=19307 fps=462 q=-0.0 size=N/A time=00:13:25.26 bitrate=N/A speed=19.3x    frame=19542 fps=462 q=-0.0 size=N/A time=00:13:35.06 bitrate=N/A speed=19.3x    frame=19819 fps=463 q=-0.0 size=N/A time=00:13:46.61 bitrate=N/A speed=19.3x    frame=20081 fps=464 q=-0.0 size=N/A time=00:13:57.54 bitrate=N/A speed=19.3x    frame=20345 fps=464 q=-0.0 size=N/A time=00:14:08.55 bitrate=N/A speed=19.4x    frame=20599 fps=464 q=-0.0 size=N/A time=00:14:19.14 bitrate=N/A speed=19.4x    frame=20828 fps=464 q=-0.0 size=N/A time=00:14:28.70 bitrate=N/A speed=19.4x    frame=21074 fps=464 q=-0.0 size=N/A time=00:14:38.96 bitrate=N/A speed=19.4x    frame=21322 fps=464 q=-0.0 size=N/A time=00:14:49.30 bitrate=N/A speed=19.4x    frame=21548 fps=464 q=-0.0 size=N/A time=00:14:58.73 bitrate=N/A speed=19.4x    frame=21796 fps=464 q=-0.0 size=N/A time=00:15:09.07 bitrate=N/A speed=19.4x    frame=22035 fps=464 q=-0.0 size=N/A time=00:15:19.04 bitrate=N/A speed=19.4x    frame=22295 fps=465 q=-0.0 size=N/A time=00:15:29.88 bitrate=N/A speed=19.4x    frame=22545 fps=465 q=-0.0 size=N/A time=00:15:40.31 bitrate=N/A speed=19.4x    frame=22786 fps=465 q=-0.0 size=N/A time=00:15:50.36 bitrate=N/A speed=19.4x    frame=23026 fps=465 q=-0.0 size=N/A time=00:16:00.37 bitrate=N/A speed=19.4x    frame=23292 fps=466 q=-0.0 size=N/A time=00:16:11.47 bitrate=N/A speed=19.4x    frame=23549 fps=466 q=-0.0 size=N/A time=00:16:22.18 bitrate=N/A speed=19.4x    frame=23818 fps=466 q=-0.0 size=N/A time=00:16:33.40 bitrate=N/A speed=19.5x    frame=24048 fps=466 q=-0.0 size=N/A time=00:16:43.00 bitrate=N/A speed=19.4x    frame=24321 fps=467 q=-0.0 size=N/A time=00:16:54.38 bitrate=N/A speed=19.5x    frame=24553 fps=467 q=-0.0 size=N/A time=00:17:04.06 bitrate=N/A speed=19.5x    frame=24807 fps=467 q=-0.0 size=N/A time=00:17:14.65 bitrate=N/A speed=19.5x    frame=25064 fps=467 q=-0.0 size=N/A time=00:17:25.37 bitrate=N/A speed=19.5x    frame=25309 fps=467 q=-0.0 size=N/A time=00:17:35.59 bitrate=N/A speed=19.5x    frame=25584 fps=468 q=-0.0 size=N/A time=00:17:47.06 bitrate=N/A speed=19.5x    frame=25834 fps=468 q=-0.0 size=N/A time=00:17:57.49 bitrate=N/A speed=19.5x    frame=26087 fps=468 q=-0.0 size=N/A time=00:18:08.04 bitrate=N/A speed=19.5x    frame=26352 fps=469 q=-0.0 size=N/A time=00:18:19.09 bitrate=N/A speed=19.6x    frame=26621 fps=469 q=-0.0 size=N/A time=00:18:30.31 bitrate=N/A speed=19.6x    frame=26896 fps=470 q=-0.0 size=N/A time=00:18:41.78 bitrate=N/A speed=19.6x    frame=27158 fps=470 q=-0.0 size=N/A time=00:18:52.71 bitrate=N/A speed=19.6x    frame=27418 fps=470 q=-0.0 size=N/A time=00:19:03.55 bitrate=N/A speed=19.6x    frame=27672 fps=471 q=-0.0 size=N/A time=00:19:14.15 bitrate=N/A speed=19.6x    frame=27929 fps=471 q=-0.0 size=N/A time=00:19:24.87 bitrate=N/A speed=19.6x    frame=28193 fps=471 q=-0.0 size=N/A time=00:19:35.88 bitrate=N/A speed=19.7x    frame=28466 fps=472 q=-0.0 size=N/A time=00:19:47.26 bitrate=N/A speed=19.7x    frame=28742 fps=472 q=-0.0 size=N/A time=00:19:58.78 bitrate=N/A speed=19.7x    frame=29016 fps=473 q=-0.0 size=N/A time=00:20:10.20 bitrate=N/A speed=19.7x    frame=29292 fps=473 q=-0.0 size=N/A time=00:20:21.72 bitrate=N/A speed=19.7x    frame=29553 fps=474 q=-0.0 size=N/A time=00:20:32.60 bitrate=N/A speed=19.7x    frame=29804 fps=474 q=-0.0 size=N/A time=00:20:43.07 bitrate=N/A speed=19.8x    frame=30048 fps=474 q=-0.0 size=N/A time=00:20:53.25 bitrate=N/A speed=19.8x    frame=30322 fps=474 q=-0.0 size=N/A time=00:21:04.68 bitrate=N/A speed=19.8x    frame=30561 fps=474 q=-0.0 size=N/A time=00:21:14.64 bitrate=N/A speed=19.8x    frame=30842 fps=474 q=-0.0 size=N/A time=00:21:26.36 bitrate=N/A speed=19.8x    frame=31106 fps=475 q=-0.0 size=N/A time=00:21:37.37 bitrate=N/A speed=19.8x    frame=31375 fps=475 q=-0.0 size=N/A time=00:21:48.59 bitrate=N/A speed=19.8x    frame=31605 fps=475 q=-0.0 size=N/A time=00:21:58.19 bitrate=N/A speed=19.8x    frame=31867 fps=475 q=-0.0 size=N/A time=00:22:09.11 bitrate=N/A speed=19.8x    frame=32135 fps=476 q=-0.0 size=N/A time=00:22:20.29 bitrate=N/A speed=19.8x    frame=32410 fps=476 q=-0.0 size=N/A time=00:22:31.76 bitrate=N/A speed=19.9x    frame=32661 fps=476 q=-0.0 size=N/A time=00:22:42.23 bitrate=N/A speed=19.9x    frame=32926 fps=476 q=-0.0 size=N/A time=00:22:53.28 bitrate=N/A speed=19.9x    frame=33178 fps=476 q=-0.0 size=N/A time=00:23:03.79 bitrate=N/A speed=19.9x    [Parsed_ssim_10 @ 0000015d6ee4fb80] SSIM Y:0.993567 (21.916108) U:0.995146 (23.139252) V:0.995631 (23.596121) All:0.994174 (22.346626)
[out#0/null @ 0000015d626306c0] video:14364KiB audio:261440KiB subtitle:0KiB other streams:0KiB global headers:0KiB muxing overhead: unknown
frame=33428 fps=477 q=-0.0 Lsize=N/A time=00:23:14.22 bitrate=N/A speed=19.9x    
